
    <svg
      xmlns="http://www.w3.org/2000/svg"
      width="682.667"
      height="682.667"
      version="1"
      viewBox="0 0 512 512"
    >
      <path
        d="M3440 4260c-18-18-20-33-20-134 0-99 3-117 21-140 25-32 70-35 99-6 18 18 20 33 20 138 0 138-10 162-66 162-21 0-42-8-54-20zM2085 4233c-151-12-359-69-485-133-393-199-668-599-708-1034l-7-78-78-29c-270-98-508-323-623-589-267-616 71-1315 723-1498l98-27h3110l84 22c359 96 644 355 765 694 186 519-40 1093-529 1346-44 22-99 47-123 54-33 9-44 18-48 38-30 151-83 271-163 370-191 239-487 341-797 276-28-6-33-2-86 67-225 299-543 478-918 518-93 9-134 10-215 3zm377-176c383-101 688-387 812-761 29-88 56-235 56-307 0-31 7-55 20-72l20-25 352-5c403-5 445-11 614-91 116-55 168-91 261-179 259-246 355-626 246-971-97-307-328-532-649-633l-89-28H1025l-80 23c-560 162-850 735-643 1274 53 141 164 291 285 389 97 78 186 126 313 169 121 42 130 51 130 146 0 129 53 340 116 466 136 272 385 488 672 583 137 45 211 55 387 51 132-3 177-8 257-29zm1240-569c190-71 329-210 393-394 13-38 23-69 22-69s-147 1-323 3l-321 4-7 56c-12 105-38 207-77 311-21 58-39 106-39 107 0 9 52 12 160 10 105-2 136-7 192-28z"
        transform="matrix(.1 0 0 -.1 0 512)"
      ></path>
      <path
        d="M2027 3774c-174-31-330-117-459-252-91-96-147-187-187-307-38-116-58-255-41-295 15-37 57-55 92-39 33 15 48 48 48 108 0 127 80 314 181 425 109 119 282 210 422 222 103 9 127 14 148 35 26 26 24 65-6 94-28 29-75 31-198 9zM4111 4083c-15-16-49-68-75-116-44-80-47-90-36-117 15-36 58-53 91-36 14 6 49 54 83 114 54 94 58 104 47 131-11 26-46 51-72 51-6 0-23-12-38-27zM4530 3565c-52-30-101-62-107-72-31-41 3-103 57-103 30 0 194 89 218 118 31 40-1 112-50 112-13 0-66-25-118-55z"
        transform="matrix(.1 0 0 -.1 0 512)"
      ></path>
    </svg>


